REM GoldWave
FILE "Зазнобин В.М. Алгоритмы смуты (23 ноября 2006 г.).m4a" BINARY
  TRACK 01 AUDIO
    TITLE "00:00:00.00000"
    PERFORMER "Владимир Михайлович Зазнобин. Видеоархив"
    INDEX 01 00:00:00
  TRACK 02 AUDIO
    TITLE "00:00:13.78746"
    PERFORMER "Владимир Михайлович Зазнобин. Видеоархив"
    INDEX 01 00:13:59
  TRACK 03 AUDIO
    TITLE "00:00:27.14304"
    PERFORMER "Владимир Михайлович Зазнобин. Видеоархив"
    INDEX 01 00:27:11
  TRACK 04 AUDIO
    TITLE "00:00:41.02478"
    PERFORMER "Владимир Михайлович Зазнобин. Видеоархив"
    INDEX 01 00:41:02
  TRACK 05 AUDIO
    TITLE "00:00:56.06846"
    PERFORMER "Владимир Михайлович Зазнобин. Видеоархив"
    INDEX 01 00:56:05
  TRACK 06 AUDIO
    TITLE "00:01:09.84571"
    PERFORMER "Владимир Михайлович Зазнобин. Видеоархив"
    INDEX 01 01:09:63
  TRACK 07 AUDIO
    TITLE "00:01:23.95828"
    PERFORMER "Владимир Михайлович Зазнобин. Видеоархив"
    INDEX 01 01:23:72
  TRACK 08 AUDIO
    TITLE "00:01:38.16927"
    PERFORMER "Владимир Михайлович Зазнобин. Видеоархив"
    INDEX 01 01:38:13
  TRACK 09 AUDIO
    TITLE "00:01:52.46898"
    PERFORMER "Владимир Михайлович Зазнобин. Видеоархив"
    INDEX 01 01:52:35
  TRACK 10 AUDIO
    TITLE "00:02:07.12580"
    PERFORMER "Владимир Михайлович Зазнобин. Видеоархив"
    INDEX 01 02:07:09
  TRACK 11 AUDIO
    TITLE "00:02:20.71497"
    PERFORMER "Владимир Михайлович Зазнобин. Видеоархив"
    INDEX 01 02:20:54
  TRACK 12 AUDIO
    TITLE "00:02:34.15694"
    PERFORMER "Владимир Михайлович Зазнобин. Видеоархив"
    INDEX 01 02:34:12
  TRACK 13 AUDIO
    TITLE "00:02:47.94395"
    PERFORMER "Владимир Михайлович Зазнобин. Видеоархив"
    INDEX 01 02:47:71
  TRACK 14 AUDIO
    TITLE "00:03:04.09984"
    PERFORMER "Владимир Михайлович Зазнобин. Видеоархив"
    INDEX 01 03:04:07
  TRACK 15 AUDIO
    TITLE "00:03:20.65887"
    PERFORMER "Владимир Михайлович Зазнобин. Видеоархив"
    INDEX 01 03:20:49
  TRACK 16 AUDIO
    TITLE "00:03:33.71583"
    PERFORMER "Владимир Михайлович Зазнобин. Видеоархив"
    INDEX 01 03:33:54
  TRACK 17 AUDIO
    TITLE "00:03:47.88132"
    PERFORMER "Владимир Михайлович Зазнобин. Видеоархив"
    INDEX 01 03:47:66
  TRACK 18 AUDIO
    TITLE "00:04:01.18118"
    PERFORMER "Владимир Михайлович Зазнобин. Видеоархив"
    INDEX 01 04:01:14
  TRACK 19 AUDIO
    TITLE "00:04:15.96107"
    PERFORMER "Владимир Михайлович Зазнобин. Видеоархив"
    INDEX 01 04:15:72
  TRACK 20 AUDIO
    TITLE "00:04:32.87023"
    PERFORMER "Владимир Михайлович Зазнобин. Видеоархив"
    INDEX 01 04:32:65
  TRACK 21 AUDIO
    TITLE "00:04:47.28324"
    PERFORMER "Владимир Михайлович Зазнобин. Видеоархив"
    INDEX 01 04:47:21
  TRACK 22 AUDIO
    TITLE "00:05:06.00077"
    PERFORMER "Владимир Михайлович Зазнобин. Видеоархив"
    INDEX 01 05:06:00
  TRACK 23 AUDIO
    TITLE "00:05:20.81923"
    PERFORMER "Владимир Михайлович Зазнобин. Видеоархив"
    INDEX 01 05:20:61
  TRACK 24 AUDIO
    TITLE "00:05:37.38519"
    PERFORMER "Владимир Михайлович Зазнобин. Видеоархив"
    INDEX 01 05:37:29
  TRACK 25 AUDIO
    TITLE "00:05:52.09728"
    PERFORMER "Владимир Михайлович Зазнобин. Видеоархив"
    INDEX 01 05:52:07
  TRACK 26 AUDIO
    TITLE "00:06:08.88848"
    PERFORMER "Владимир Михайлович Зазнобин. Видеоархив"
    INDEX 01 06:08:67
  TRACK 27 AUDIO
    TITLE "00:06:26.53651"
    PERFORMER "Владимир Михайлович Зазнобин. Видеоархив"
    INDEX 01 06:26:40
  TRACK 28 AUDIO
    TITLE "00:06:40.92955"
    PERFORMER "Владимир Михайлович Зазнобин. Видеоархив"
    INDEX 01 06:40:70
  TRACK 29 AUDIO
    TITLE "00:06:55.39320"
    PERFORMER "Владимир Михайлович Зазнобин. Видеоархив"
    INDEX 01 06:55:29
  TRACK 30 AUDIO
    TITLE "00:07:11.93735"
    PERFORMER "Владимир Михайлович Зазнобин. Видеоархив"
    INDEX 01 07:11:70
  TRACK 31 AUDIO
    TITLE "00:07:27.34556"
    PERFORMER "Владимир Михайлович Зазнобин. Видеоархив"
    INDEX 01 07:27:26
  TRACK 32 AUDIO
    TITLE "00:07:44.26959"
    PERFORMER "Владимир Михайлович Зазнобин. Видеоархив"
    INDEX 01 07:44:20
  TRACK 33 AUDIO
    TITLE "00:08:02.38340"
    PERFORMER "Владимир Михайлович Зазнобин. Видеоархив"
    INDEX 01 08:02:29
  TRACK 34 AUDIO
    TITLE "00:08:19.75186"
    PERFORMER "Владимир Михайлович Зазнобин. Видеоархив"
    INDEX 01 08:19:56
  TRACK 35 AUDIO
    TITLE "00:08:34.14073"
    PERFORMER "Владимир Михайлович Зазнобин. Видеоархив"
    INDEX 01 08:34:11
  TRACK 36 AUDIO
    TITLE "00:08:49.81785"
    PERFORMER "Владимир Михайлович Зазнобин. Видеоархив"
    INDEX 01 08:49:61
  TRACK 37 AUDIO
    TITLE "00:09:06.48320"
    PERFORMER "Владимир Михайлович Зазнобин. Видеоархив"
    INDEX 01 09:06:36
  TRACK 38 AUDIO
    TITLE "00:09:24.73912"
    PERFORMER "Владимир Михайлович Зазнобин. Видеоархив"
    INDEX 01 09:24:55
  TRACK 39 AUDIO
    TITLE "00:09:40.68279"
    PERFORMER "Владимир Михайлович Зазнобин. Видеоархив"
    INDEX 01 09:40:51
  TRACK 40 AUDIO
    TITLE "00:09:55.36841"
    PERFORMER "Владимир Михайлович Зазнобин. Видеоархив"
    INDEX 01 09:55:28
  TRACK 41 AUDIO
    TITLE "00:10:10.20773"
    PERFORMER "Владимир Михайлович Зазнобин. Видеоархив"
    INDEX 01 10:10:16
  TRACK 42 AUDIO
    TITLE "00:10:26.85544"
    PERFORMER "Владимир Михайлович Зазнобин. Видеоархив"
    INDEX 01 10:26:64
  TRACK 43 AUDIO
    TITLE "00:10:41.02095"
    PERFORMER "Владимир Михайлович Зазнобин. Видеоархив"
    INDEX 01 10:41:02
  TRACK 44 AUDIO
    TITLE "00:10:54.41136"
    PERFORMER "Владимир Михайлович Зазнобин. Видеоархив"
    INDEX 01 10:54:31
  TRACK 45 AUDIO
    TITLE "00:11:08.16075"
    PERFORMER "Владимир Михайлович Зазнобин. Видеоархив"
    INDEX 01 11:08:12
  TRACK 46 AUDIO
    TITLE "00:11:23.20163"
    PERFORMER "Владимир Михайлович Зазнобин. Видеоархив"
    INDEX 01 11:23:15
  TRACK 47 AUDIO
    TITLE "00:11:37.96202"
    PERFORMER "Владимир Михайлович Зазнобин. Видеоархив"
    INDEX 01 11:37:72
  TRACK 48 AUDIO
    TITLE "00:11:52.20785"
    PERFORMER "Владимир Михайлович Зазнобин. Видеоархив"
    INDEX 01 11:52:16
  TRACK 49 AUDIO
    TITLE "00:12:06.16948"
    PERFORMER "Владимир Михайлович Зазнобин. Видеоархив"
    INDEX 01 12:06:13
  TRACK 50 AUDIO
    TITLE "00:12:22.28499"
    PERFORMER "Владимир Михайлович Зазнобин. Видеоархив"
    INDEX 01 12:22:21
  TRACK 51 AUDIO
    TITLE "00:12:35.71812"
    PERFORMER "Владимир Михайлович Зазнобин. Видеоархив"
    INDEX 01 12:35:54
  TRACK 52 AUDIO
    TITLE "00:12:49.65558"
    PERFORMER "Владимир Михайлович Зазнобин. Видеоархив"
    INDEX 01 12:49:49
  TRACK 53 AUDIO
    TITLE "00:13:04.75220"
    PERFORMER "Владимир Михайлович Зазнобин. Видеоархив"
    INDEX 01 13:04:56
  TRACK 54 AUDIO
    TITLE "00:13:22.46569"
    PERFORMER "Владимир Михайлович Зазнобин. Видеоархив"
    INDEX 01 13:22:35
  TRACK 55 AUDIO
    TITLE "00:13:36.02236"
    PERFORMER "Владимир Михайлович Зазнобин. Видеоархив"
    INDEX 01 13:36:02
  TRACK 56 AUDIO
    TITLE "00:13:52.73973"
    PERFORMER "Владимир Михайлович Зазнобин. Видеоархив"
    INDEX 01 13:52:55
  TRACK 57 AUDIO
    TITLE "00:14:11.01562"
    PERFORMER "Владимир Михайлович Зазнобин. Видеоархив"
    INDEX 01 14:11:01
  TRACK 58 AUDIO
    TITLE "00:14:26.07370"
    PERFORMER "Владимир Михайлович Зазнобин. Видеоархив"
    INDEX 01 14:26:06
  TRACK 59 AUDIO
    TITLE "00:14:41.96676"
    PERFORMER "Владимир Михайлович Зазнобин. Видеоархив"
    INDEX 01 14:41:73
  TRACK 60 AUDIO
    TITLE "00:14:55.91211"
    PERFORMER "Владимир Михайлович Зазнобин. Видеоархив"
    INDEX 01 14:55:68
  TRACK 61 AUDIO
    TITLE "00:15:10.62977"
    PERFORMER "Владимир Михайлович Зазнобин. Видеоархив"
    INDEX 01 15:10:47
  TRACK 62 AUDIO
    TITLE "00:15:24.34388"
    PERFORMER "Владимир Михайлович Зазнобин. Видеоархив"
    INDEX 01 15:24:26
  TRACK 63 AUDIO
    TITLE "00:15:39.44839"
    PERFORMER "Владимир Михайлович Зазнобин. Видеоархив"
    INDEX 01 15:39:34
  TRACK 64 AUDIO
    TITLE "00:15:52.93912"
    PERFORMER "Владимир Михайлович Зазнобин. Видеоархив"
    INDEX 01 15:52:70
  TRACK 65 AUDIO
    TITLE "00:16:06.49345"
    PERFORMER "Владимир Михайлович Зазнобин. Видеоархив"
    INDEX 01 16:06:37
  TRACK 66 AUDIO
    TITLE "00:16:19.85367"
    PERFORMER "Владимир Михайлович Зазнобин. Видеоархив"
    INDEX 01 16:19:64
  TRACK 67 AUDIO
    TITLE "00:16:33.67599"
    PERFORMER "Владимир Михайлович Зазнобин. Видеоархив"
    INDEX 01 16:33:51
  TRACK 68 AUDIO
    TITLE "00:16:49.95773"
    PERFORMER "Владимир Михайлович Зазнобин. Видеоархив"
    INDEX 01 16:49:72
  TRACK 69 AUDIO
    TITLE "00:17:04.54676"
    PERFORMER "Владимир Михайлович Зазнобин. Видеоархив"
    INDEX 01 17:04:41
  TRACK 70 AUDIO
    TITLE "00:17:17.81828"
    PERFORMER "Владимир Михайлович Зазнобин. Видеоархив"
    INDEX 01 17:17:61
  TRACK 71 AUDIO
    TITLE "00:17:31.02340"
    PERFORMER "Владимир Михайлович Зазнобин. Видеоархив"
    INDEX 01 17:31:02
  TRACK 72 AUDIO
    TITLE "00:17:45.09834"
    PERFORMER "Владимир Михайлович Зазнобин. Видеоархив"
    INDEX 01 17:45:07
  TRACK 73 AUDIO
    TITLE "00:18:03.55163"
    PERFORMER "Владимир Михайлович Зазнобин. Видеоархив"
    INDEX 01 18:03:41
  TRACK 74 AUDIO
    TITLE "00:18:18.53633"
    PERFORMER "Владимир Михайлович Зазнобин. Видеоархив"
    INDEX 01 18:18:40
  TRACK 75 AUDIO
    TITLE "00:18:32.12177"
    PERFORMER "Владимир Михайлович Зазнобин. Видеоархив"
    INDEX 01 18:32:09
  TRACK 76 AUDIO
    TITLE "00:18:46.81390"
    PERFORMER "Владимир Михайлович Зазнобин. Видеоархив"
    INDEX 01 18:46:61
  TRACK 77 AUDIO
    TITLE "00:19:01.17490"
    PERFORMER "Владимир Михайлович Зазнобин. Видеоархив"
    INDEX 01 19:01:13
  TRACK 78 AUDIO
    TITLE "00:19:15.23358"
    PERFORMER "Владимир Михайлович Зазнобин. Видеоархив"
    INDEX 01 19:15:18
  TRACK 79 AUDIO
    TITLE "00:19:30.37850"
    PERFORMER "Владимир Михайлович Зазнобин. Видеоархив"
    INDEX 01 19:30:28
  TRACK 80 AUDIO
    TITLE "00:19:43.65420"
    PERFORMER "Владимир Михайлович Зазнобин. Видеоархив"
    INDEX 01 19:43:49
  TRACK 81 AUDIO
    TITLE "00:19:58.71365"
    PERFORMER "Владимир Михайлович Зазнобин. Видеоархив"
    INDEX 01 19:58:54
  TRACK 82 AUDIO
    TITLE "00:20:12.34463"
    PERFORMER "Владимир Михайлович Зазнобин. Видеоархив"
    INDEX 01 20:12:26
  TRACK 83 AUDIO
    TITLE "00:20:27.15145"
    PERFORMER "Владимир Михайлович Зазнобин. Видеоархив"
    INDEX 01 20:27:11
  TRACK 84 AUDIO
    TITLE "00:20:44.90814"
    PERFORMER "Владимир Михайлович Зазнобин. Видеоархив"
    INDEX 01 20:44:68
  TRACK 85 AUDIO
    TITLE "00:21:01.97707"
    PERFORMER "Владимир Михайлович Зазнобин. Видеоархив"
    INDEX 01 21:01:73
  TRACK 86 AUDIO
    TITLE "00:21:18.75109"
    PERFORMER "Владимир Михайлович Зазнобин. Видеоархив"
    INDEX 01 21:18:56
  TRACK 87 AUDIO
    TITLE "00:21:33.15483"
    PERFORMER "Владимир Михайлович Зазнобин. Видеоархив"
    INDEX 01 21:33:12
  TRACK 88 AUDIO
    TITLE "00:21:47.03424"
    PERFORMER "Владимир Михайлович Зазнобин. Видеоархив"
    INDEX 01 21:47:03
  TRACK 89 AUDIO
    TITLE "00:22:01.57776"
    PERFORMER "Владимир Михайлович Зазнобин. Видеоархив"
    INDEX 01 22:01:43
  TRACK 90 AUDIO
    TITLE "00:22:18.30116"
    PERFORMER "Владимир Михайлович Зазнобин. Видеоархив"
    INDEX 01 22:18:23
  TRACK 91 AUDIO
    TITLE "00:22:33.21526"
    PERFORMER "Владимир Михайлович Зазнобин. Видеоархив"
    INDEX 01 22:33:16
  TRACK 92 AUDIO
    TITLE "00:22:47.61993"
    PERFORMER "Владимир Михайлович Зазнобин. Видеоархив"
    INDEX 01 22:47:46
  TRACK 93 AUDIO
    TITLE "00:23:01.49469"
    PERFORMER "Владимир Михайлович Зазнобин. Видеоархив"
    INDEX 01 23:01:37
  TRACK 94 AUDIO
    TITLE "00:23:14.94084"
    PERFORMER "Владимир Михайлович Зазнобин. Видеоархив"
    INDEX 01 23:14:71
  TRACK 95 AUDIO
    TITLE "00:23:28.62383"
    PERFORMER "Владимир Михайлович Зазнобин. Видеоархив"
    INDEX 01 23:28:47
  TRACK 96 AUDIO
    TITLE "00:23:43.21841"
    PERFORMER "Владимир Михайлович Зазнобин. Видеоархив"
    INDEX 01 23:43:16
  TRACK 97 AUDIO
    TITLE "00:23:57.76751"
    PERFORMER "Владимир Михайлович Зазнобин. Видеоархив"
    INDEX 01 23:57:58
  TRACK 98 AUDIO
    TITLE "00:24:14.76955"
    PERFORMER "Владимир Михайлович Зазнобин. Видеоархив"
    INDEX 01 24:14:58
  TRACK 99 AUDIO
    TITLE "00:24:28.19619"
    PERFORMER "Владимир Михайлович Зазнобин. Видеоархив"
    INDEX 01 24:28:15
  TRACK 100 AUDIO
    TITLE "00:24:44.70317"
    PERFORMER "Владимир Михайлович Зазнобин. Видеоархив"
    INDEX 01 24:44:53
  TRACK 101 AUDIO
    TITLE "00:24:59.00984"
    PERFORMER "Владимир Михайлович Зазнобин. Видеоархив"
    INDEX 01 24:59:01
  TRACK 102 AUDIO
    TITLE "00:25:13.03277"
    PERFORMER "Владимир Михайлович Зазнобин. Видеоархив"
    INDEX 01 25:13:02
  TRACK 103 AUDIO
    TITLE "00:25:27.45880"
    PERFORMER "Владимир Михайлович Зазнобин. Видеоархив"
    INDEX 01 25:27:34
  TRACK 104 AUDIO
    TITLE "00:25:41.14642"
    PERFORMER "Владимир Михайлович Зазнобин. Видеоархив"
    INDEX 01 25:41:11
  TRACK 105 AUDIO
    TITLE "00:25:55.51020"
    PERFORMER "Владимир Михайлович Зазнобин. Видеоархив"
    INDEX 01 25:55:38
  TRACK 106 AUDIO
    TITLE "00:26:10.85249"
    PERFORMER "Владимир Михайлович Зазнобин. Видеоархив"
    INDEX 01 26:10:64
  TRACK 107 AUDIO
    TITLE "00:26:25.35329"
    PERFORMER "Владимир Михайлович Зазнобин. Видеоархив"
    INDEX 01 26:25:26
  TRACK 108 AUDIO
    TITLE "00:26:42.76864"
    PERFORMER "Владимир Михайлович Зазнобин. Видеоархив"
    INDEX 01 26:42:58
  TRACK 109 AUDIO
    TITLE "00:26:57.92701"
    PERFORMER "Владимир Михайлович Зазнобин. Видеоархив"
    INDEX 01 26:57:70
  TRACK 110 AUDIO
    TITLE "00:27:13.40583"
    PERFORMER "Владимир Михайлович Зазнобин. Видеоархив"
    INDEX 01 27:13:30
  TRACK 111 AUDIO
    TITLE "00:27:27.17426"
    PERFORMER "Владимир Михайлович Зазнобин. Видеоархив"
    INDEX 01 27:27:13
  TRACK 112 AUDIO
    TITLE "00:27:41.37689"
    PERFORMER "Владимир Михайлович Зазнобин. Видеоархив"
    INDEX 01 27:41:28
  TRACK 113 AUDIO
    TITLE "00:27:55.56655"
    PERFORMER "Владимир Михайлович Зазнобин. Видеоархив"
    INDEX 01 27:55:42
  TRACK 114 AUDIO
    TITLE "00:28:10.55170"
    PERFORMER "Владимир Михайлович Зазнобин. Видеоархив"
    INDEX 01 28:10:41
  TRACK 115 AUDIO
    TITLE "00:28:24.91828"
    PERFORMER "Владимир Михайлович Зазнобин. Видеоархив"
    INDEX 01 28:24:69
  TRACK 116 AUDIO
    TITLE "00:28:43.10315"
    PERFORMER "Владимир Михайлович Зазнобин. Видеоархив"
    INDEX 01 28:43:08
  TRACK 117 AUDIO
    TITLE "00:29:01.44961"
    PERFORMER "Владимир Михайлович Зазнобин. Видеоархив"
    INDEX 01 29:01:34
  TRACK 118 AUDIO
    TITLE "00:29:17.47272"
    PERFORMER "Владимир Михайлович Зазнобин. Видеоархив"
    INDEX 01 29:17:35
  TRACK 119 AUDIO
    TITLE "00:29:31.03821"
    PERFORMER "Владимир Михайлович Зазнобин. Видеоархив"
    INDEX 01 29:31:03
  TRACK 120 AUDIO
    TITLE "00:29:44.41143"
    PERFORMER "Владимир Михайлович Зазнобин. Видеоархив"
    INDEX 01 29:44:31
  TRACK 121 AUDIO
    TITLE "00:30:01.13669"
    PERFORMER "Владимир Михайлович Зазнобин. Видеоархив"
    INDEX 01 30:01:10
  TRACK 122 AUDIO
    TITLE "00:30:14.88190"
    PERFORMER "Владимир Михайлович Зазнобин. Видеоархив"
    INDEX 01 30:14:66
  TRACK 123 AUDIO
    TITLE "00:30:30.72481"
    PERFORMER "Владимир Михайлович Зазнобин. Видеоархив"
    INDEX 01 30:30:54
  TRACK 124 AUDIO
    TITLE "00:30:45.71973"
    PERFORMER "Владимир Михайлович Зазнобин. Видеоархив"
    INDEX 01 30:45:54
  TRACK 125 AUDIO
    TITLE "00:30:59.34093"
    PERFORMER "Владимир Михайлович Зазнобин. Видеоархив"
    INDEX 01 30:59:26
  TRACK 126 AUDIO
    TITLE "00:31:15.48755"
    PERFORMER "Владимир Михайлович Зазнобин. Видеоархив"
    INDEX 01 31:15:37
  TRACK 127 AUDIO
    TITLE "00:31:31.50181"
    PERFORMER "Владимир Михайлович Зазнобин. Видеоархив"
    INDEX 01 31:31:38
  TRACK 128 AUDIO
    TITLE "00:31:48.15417"
    PERFORMER "Владимир Михайлович Зазнобин. Видеоархив"
    INDEX 01 31:48:12
  TRACK 129 AUDIO
    TITLE "00:32:02.00898"
    PERFORMER "Владимир Михайлович Зазнобин. Видеоархив"
    INDEX 01 32:02:01
  TRACK 130 AUDIO
    TITLE "00:32:16.00868"
    PERFORMER "Владимир Михайлович Зазнобин. Видеоархив"
    INDEX 01 32:16:01
  TRACK 131 AUDIO
    TITLE "00:32:29.33501"
    PERFORMER "Владимир Михайлович Зазнобин. Видеоархив"
    INDEX 01 32:29:25
  TRACK 132 AUDIO
    TITLE "00:32:44.10467"
    PERFORMER "Владимир Михайлович Зазнобин. Видеоархив"
    INDEX 01 32:44:08
  TRACK 133 AUDIO
    TITLE "00:32:58.58551"
    PERFORMER "Владимир Михайлович Зазнобин. Видеоархив"
    INDEX 01 32:58:44
  TRACK 134 AUDIO
    TITLE "00:33:11.93830"
    PERFORMER "Владимир Михайлович Зазнобин. Видеоархив"
    INDEX 01 33:11:70
  TRACK 135 AUDIO
    TITLE "00:33:27.63351"
    PERFORMER "Владимир Михайлович Зазнобин. Видеоархив"
    INDEX 01 33:27:48
  TRACK 136 AUDIO
    TITLE "00:33:43.93710"
    PERFORMER "Владимир Михайлович Зазнобин. Видеоархив"
    INDEX 01 33:43:70
  TRACK 137 AUDIO
    TITLE "00:33:58.26560"
    PERFORMER "Владимир Михайлович Зазнобин. Видеоархив"
    INDEX 01 33:58:20
  TRACK 138 AUDIO
    TITLE "00:34:12.25649"
    PERFORMER "Владимир Михайлович Зазнобин. Видеоархив"
    INDEX 01 34:12:19
  TRACK 139 AUDIO
    TITLE "00:34:26.88823"
    PERFORMER "Владимир Михайлович Зазнобин. Видеоархив"
    INDEX 01 34:26:67
  TRACK 140 AUDIO
    TITLE "00:34:40.61488"
    PERFORMER "Владимир Михайлович Зазнобин. Видеоархив"
    INDEX 01 34:40:46
  TRACK 141 AUDIO
    TITLE "00:34:54.10512"
    PERFORMER "Владимир Михайлович Зазнобин. Видеоархив"
    INDEX 01 34:54:08
  TRACK 142 AUDIO
    TITLE "00:35:08.56506"
    PERFORMER "Владимир Михайлович Зазнобин. Видеоархив"
    INDEX 01 35:08:42
  TRACK 143 AUDIO
    TITLE "00:35:22.64091"
    PERFORMER "Владимир Михайлович Зазнобин. Видеоархив"
    INDEX 01 35:22:48
  TRACK 144 AUDIO
    TITLE "00:35:35.83721"
    PERFORMER "Владимир Михайлович Зазнобин. Видеоархив"
    INDEX 01 35:35:63
  TRACK 145 AUDIO
    TITLE "00:35:49.33676"
    PERFORMER "Владимир Михайлович Зазнобин. Видеоархив"
    INDEX 01 35:49:25
  TRACK 146 AUDIO
    TITLE "00:36:03.50363"
    PERFORMER "Владимир Михайлович Зазнобин. Видеоархив"
    INDEX 01 36:03:38
  TRACK 147 AUDIO
    TITLE "00:36:16.47005"
    PERFORMER "Владимир Михайлович Зазнобин. Видеоархив"
    INDEX 01 36:16:35
  TRACK 148 AUDIO
    TITLE "00:36:31.77751"
    PERFORMER "Владимир Михайлович Зазнобин. Видеоархив"
    INDEX 01 36:31:58
  TRACK 149 AUDIO
    TITLE "00:36:47.58324"
    PERFORMER "Владимир Михайлович Зазнобин. Видеоархив"
    INDEX 01 36:47:44
  TRACK 150 AUDIO
    TITLE "00:37:01.28712"
    PERFORMER "Владимир Михайлович Зазнобин. Видеоархив"
    INDEX 01 37:01:22
  TRACK 151 AUDIO
    TITLE "00:37:16.34660"
    PERFORMER "Владимир Михайлович Зазнобин. Видеоархив"
    INDEX 01 37:16:26
  TRACK 152 AUDIO
    TITLE "00:37:33.25900"
    PERFORMER "Владимир Михайлович Зазнобин. Видеоархив"
    INDEX 01 37:33:19
  TRACK 153 AUDIO
    TITLE "00:37:48.37095"
    PERFORMER "Владимир Михайлович Зазнобин. Видеоархив"
    INDEX 01 37:48:28
  TRACK 154 AUDIO
    TITLE "00:38:06.24744"
    PERFORMER "Владимир Михайлович Зазнобин. Видеоархив"
    INDEX 01 38:06:19
  TRACK 155 AUDIO
    TITLE "00:38:19.75025"
    PERFORMER "Владимир Михайлович Зазнобин. Видеоархив"
    INDEX 01 38:19:56
  TRACK 156 AUDIO
    TITLE "00:38:37.14889"
    PERFORMER "Владимир Михайлович Зазнобин. Видеоархив"
    INDEX 01 38:37:11
  TRACK 157 AUDIO
    TITLE "00:38:52.13914"
    PERFORMER "Владимир Михайлович Зазнобин. Видеоархив"
    INDEX 01 38:52:10
  TRACK 158 AUDIO
    TITLE "00:39:07.63560"
    PERFORMER "Владимир Михайлович Зазнобин. Видеоархив"
    INDEX 01 39:07:48
  TRACK 159 AUDIO
    TITLE "00:39:21.89492"
    PERFORMER "Владимир Михайлович Зазнобин. Видеоархив"
    INDEX 01 39:21:67
  TRACK 160 AUDIO
    TITLE "00:39:35.16830"
    PERFORMER "Владимир Михайлович Зазнобин. Видеоархив"
    INDEX 01 39:35:13
  TRACK 161 AUDIO
    TITLE "00:39:48.24524"
    PERFORMER "Владимир Михайлович Зазнобин. Видеоархив"
    INDEX 01 39:48:18
  TRACK 162 AUDIO
    TITLE "00:40:03.84898"
    PERFORMER "Владимир Михайлович Зазнобин. Видеоархив"
    INDEX 01 40:03:64
  TRACK 163 AUDIO
    TITLE "00:40:20.57145"
    PERFORMER "Владимир Михайлович Зазнобин. Видеоархив"
    INDEX 01 40:20:43
  TRACK 164 AUDIO
    TITLE "00:40:37.10444"
    PERFORMER "Владимир Михайлович Зазнобин. Видеоархив"
    INDEX 01 40:37:08
  TRACK 165 AUDIO
    TITLE "00:40:52.01995"
    PERFORMER "Владимир Михайлович Зазнобин. Видеоархив"
    INDEX 01 40:52:01
  TRACK 166 AUDIO
    TITLE "00:41:07.44580"
    PERFORMER "Владимир Михайлович Зазнобин. Видеоархив"
    INDEX 01 41:07:33
  TRACK 167 AUDIO
    TITLE "00:41:23.01751"
    PERFORMER "Владимир Михайлович Зазнобин. Видеоархив"
    INDEX 01 41:23:01
  TRACK 168 AUDIO
    TITLE "00:41:40.11057"
    PERFORMER "Владимир Михайлович Зазнобин. Видеоархив"
    INDEX 01 41:40:08
  TRACK 169 AUDIO
    TITLE "00:41:55.48166"
    PERFORMER "Владимир Михайлович Зазнобин. Видеоархив"
    INDEX 01 41:55:36
  TRACK 170 AUDIO
    TITLE "00:42:11.42905"
    PERFORMER "Владимир Михайлович Зазнобин. Видеоархив"
    INDEX 01 42:11:32
  TRACK 171 AUDIO
    TITLE "00:42:25.19190"
    PERFORMER "Владимир Михайлович Зазнобин. Видеоархив"
    INDEX 01 42:25:14
  TRACK 172 AUDIO
    TITLE "00:42:39.35925"
    PERFORMER "Владимир Михайлович Зазнобин. Видеоархив"
    INDEX 01 42:39:27
  TRACK 173 AUDIO
    TITLE "00:42:58.47848"
    PERFORMER "Владимир Михайлович Зазнобин. Видеоархив"
    INDEX 01 42:58:36
  TRACK 174 AUDIO
    TITLE "00:43:16.60066"
    PERFORMER "Владимир Михайлович Зазнобин. Видеоархив"
    INDEX 01 43:16:45
  TRACK 175 AUDIO
    TITLE "00:43:31.89372"
    PERFORMER "Владимир Михайлович Зазнобин. Видеоархив"
    INDEX 01 43:31:67
  TRACK 176 AUDIO
    TITLE "00:43:49.53848"
    PERFORMER "Владимир Михайлович Зазнобин. Видеоархив"
    INDEX 01 43:49:40
  TRACK 177 AUDIO
    TITLE "00:44:03.58510"
    PERFORMER "Владимир Михайлович Зазнобин. Видеоархив"
    INDEX 01 44:03:44
  TRACK 178 AUDIO
    TITLE "00:44:18.38077"
    PERFORMER "Владимир Михайлович Зазнобин. Видеоархив"
    INDEX 01 44:18:29
  TRACK 179 AUDIO
    TITLE "00:44:35.97726"
    PERFORMER "Владимир Михайлович Зазнобин. Видеоархив"
    INDEX 01 44:35:73
  TRACK 180 AUDIO
    TITLE "00:44:50.52263"
    PERFORMER "Владимир Михайлович Зазнобин. Видеоархив"
    INDEX 01 44:50:39
  TRACK 181 AUDIO
    TITLE "00:45:07.00268"
    PERFORMER "Владимир Михайлович Зазнобин. Видеоархив"
    INDEX 01 45:07:00
  TRACK 182 AUDIO
    TITLE "00:45:23.83660"
    PERFORMER "Владимир Михайлович Зазнобин. Видеоархив"
    INDEX 01 45:23:63
  TRACK 183 AUDIO
    TITLE "00:45:39.87317"
    PERFORMER "Владимир Михайлович Зазнобин. Видеоархив"
    INDEX 01 45:39:65
  TRACK 184 AUDIO
    TITLE "00:45:57.94796"
    PERFORMER "Владимир Михайлович Зазнобин. Видеоархив"
    INDEX 01 45:57:71
  TRACK 185 AUDIO
    TITLE "00:46:14.45914"
    PERFORMER "Владимир Михайлович Зазнобин. Видеоархив"
    INDEX 01 46:14:34
  TRACK 186 AUDIO
    TITLE "00:46:28.02463"
    PERFORMER "Владимир Михайлович Зазнобин. Видеоархив"
    INDEX 01 46:28:02
  TRACK 187 AUDIO
    TITLE "00:46:43.52667"
    PERFORMER "Владимир Михайлович Зазнобин. Видеоархив"
    INDEX 01 46:43:39
  TRACK 188 AUDIO
    TITLE "00:46:58.44077"
    PERFORMER "Владимир Михайлович Зазнобин. Видеоархив"
    INDEX 01 46:58:33
  TRACK 189 AUDIO
    TITLE "00:47:14.54605"
    PERFORMER "Владимир Михайлович Зазнобин. Видеоархив"
    INDEX 01 47:14:41
  TRACK 190 AUDIO
    TITLE "00:47:30.54082"
    PERFORMER "Владимир Михайлович Зазнобин. Видеоархив"
    INDEX 01 47:30:41
  TRACK 191 AUDIO
    TITLE "00:47:44.44902"
    PERFORMER "Владимир Михайлович Зазнобин. Видеоархив"
    INDEX 01 47:44:34
  TRACK 192 AUDIO
    TITLE "00:48:01.27739"
    PERFORMER "Владимир Михайлович Зазнобин. Видеоархив"
    INDEX 01 48:01:21
  TRACK 193 AUDIO
    TITLE "00:48:18.88270"
    PERFORMER "Владимир Михайлович Зазнобин. Видеоархив"
    INDEX 01 48:18:66
  TRACK 194 AUDIO
    TITLE "00:48:34.22637"
    PERFORMER "Владимир Михайлович Зазнобин. Видеоархив"
    INDEX 01 48:34:17
  TRACK 195 AUDIO
    TITLE "00:48:47.31630"
    PERFORMER "Владимир Михайлович Зазнобин. Видеоархив"
    INDEX 01 48:47:24
  TRACK 196 AUDIO
    TITLE "00:49:01.98195"
    PERFORMER "Владимир Михайлович Зазнобин. Видеоархив"
    INDEX 01 49:01:74
  TRACK 197 AUDIO
    TITLE "00:49:15.64868"
    PERFORMER "Владимир Михайлович Зазнобин. Видеоархив"
    INDEX 01 49:15:49
  TRACK 198 AUDIO
    TITLE "00:49:31.22363"
    PERFORMER "Владимир Михайлович Зазнобин. Видеоархив"
    INDEX 01 49:31:17
  TRACK 199 AUDIO
    TITLE "00:49:45.46714"
    PERFORMER "Владимир Михайлович Зазнобин. Видеоархив"
    INDEX 01 49:45:35
  TRACK 200 AUDIO
    TITLE "00:50:01.77955"
    PERFORMER "Владимир Михайлович Зазнобин. Видеоархив"
    INDEX 01 50:01:58
  TRACK 201 AUDIO
    TITLE "00:50:15.22986"
    PERFORMER "Владимир Михайлович Зазнобин. Видеоархив"
    INDEX 01 50:15:17
  TRACK 202 AUDIO
    TITLE "00:50:28.26687"
    PERFORMER "Владимир Михайлович Зазнобин. Видеоархив"
    INDEX 01 50:28:20
  TRACK 203 AUDIO
    TITLE "00:50:41.43020"
    PERFORMER "Владимир Михайлович Зазнобин. Видеоархив"
    INDEX 01 50:41:32
  TRACK 204 AUDIO
    TITLE "00:50:54.78810"
    PERFORMER "Владимир Михайлович Зазнобин. Видеоархив"
    INDEX 01 50:54:59
  TRACK 205 AUDIO
    TITLE "00:51:07.80512"
    PERFORMER "Владимир Михайлович Зазнобин. Видеоархив"
    INDEX 01 51:07:60
  TRACK 206 AUDIO
    TITLE "00:51:22.74293"
    PERFORMER "Владимир Михайлович Зазнобин. Видеоархив"
    INDEX 01 51:22:56
  TRACK 207 AUDIO
    TITLE "00:51:36.90934"
    PERFORMER "Владимир Михайлович Зазнобин. Видеоархив"
    INDEX 01 51:36:68
  TRACK 208 AUDIO
    TITLE "00:51:52.45642"
    PERFORMER "Владимир Михайлович Зазнобин. Видеоархив"
    INDEX 01 51:52:34
  TRACK 209 AUDIO
    TITLE "00:52:06.93168"
    PERFORMER "Владимир Михайлович Зазнобин. Видеоархив"
    INDEX 01 52:06:70
  TRACK 210 AUDIO
    TITLE "00:52:20.43029"
    PERFORMER "Владимир Михайлович Зазнобин. Видеоархив"
    INDEX 01 52:20:32
  TRACK 211 AUDIO
    TITLE "00:52:36.43340"
    PERFORMER "Владимир Михайлович Зазнобин. Видеоархив"
    INDEX 01 52:36:33
  TRACK 212 AUDIO
    TITLE "00:52:53.54272"
    PERFORMER "Владимир Михайлович Зазнобин. Видеоархив"
    INDEX 01 52:53:41
  TRACK 213 AUDIO
    TITLE "00:53:12.46971"
    PERFORMER "Владимир Михайлович Зазнобин. Видеоархив"
    INDEX 01 53:12:35
  TRACK 214 AUDIO
    TITLE "00:53:28.66925"
    PERFORMER "Владимир Михайлович Зазнобин. Видеоархив"
    INDEX 01 53:28:50
  TRACK 215 AUDIO
    TITLE "00:53:42.03599"
    PERFORMER "Владимир Михайлович Зазнобин. Видеоархив"
    INDEX 01 53:42:03
  TRACK 216 AUDIO
    TITLE "00:53:56.44483"
    PERFORMER "Владимир Михайлович Зазнобин. Видеоархив"
    INDEX 01 53:56:33
  TRACK 217 AUDIO
    TITLE "00:54:10.64050"
    PERFORMER "Владимир Михайлович Зазнобин. Видеоархив"
    INDEX 01 54:10:48
  TRACK 218 AUDIO
    TITLE "00:54:24.21249"
    PERFORMER "Владимир Михайлович Зазнобин. Видеоархив"
    INDEX 01 54:24:16
  TRACK 219 AUDIO
    TITLE "00:54:37.56807"
    PERFORMER "Владимир Михайлович Зазнобин. Видеоархив"
    INDEX 01 54:37:43
  TRACK 220 AUDIO
    TITLE "00:54:52.63821"
    PERFORMER "Владимир Михайлович Зазнобин. Видеоархив"
    INDEX 01 54:52:48
  TRACK 221 AUDIO
    TITLE "00:55:10.11952"
    PERFORMER "Владимир Михайлович Зазнобин. Видеоархив"
    INDEX 01 55:10:09
  TRACK 222 AUDIO
    TITLE "00:55:28.09494"
    PERFORMER "Владимир Михайлович Зазнобин. Видеоархив"
    INDEX 01 55:28:07
  TRACK 223 AUDIO
    TITLE "00:55:44.36417"
    PERFORMER "Владимир Михайлович Зазнобин. Видеоархив"
    INDEX 01 55:44:27
  TRACK 224 AUDIO
    TITLE "00:55:59.27828"
    PERFORMER "Владимир Михайлович Зазнобин. Видеоархив"
    INDEX 01 55:59:21
  TRACK 225 AUDIO
    TITLE "00:56:14.11714"
    PERFORMER "Владимир Михайлович Зазнобин. Видеоархив"
    INDEX 01 56:14:09
  TRACK 226 AUDIO
    TITLE "00:56:30.75138"
    PERFORMER "Владимир Михайлович Зазнобин. Видеоархив"
    INDEX 01 56:30:56
  TRACK 227 AUDIO
    TITLE "00:56:44.33544"
    PERFORMER "Владимир Михайлович Зазнобин. Видеоархив"
    INDEX 01 56:44:25
  TRACK 228 AUDIO
    TITLE "00:56:57.34830"
    PERFORMER "Владимир Михайлович Зазнобин. Видеоархив"
    INDEX 01 56:57:26
  TRACK 229 AUDIO
    TITLE "00:57:10.78376"
    PERFORMER "Владимир Михайлович Зазнобин. Видеоархив"
    INDEX 01 57:10:59
  TRACK 230 AUDIO
    TITLE "00:57:28.52930"
    PERFORMER "Владимир Михайлович Зазнобин. Видеоархив"
    INDEX 01 57:28:40
  TRACK 231 AUDIO
    TITLE "00:57:42.93721"
    PERFORMER "Владимир Михайлович Зазнобин. Видеоархив"
    INDEX 01 57:42:70
  TRACK 232 AUDIO
    TITLE "00:57:56.36803"
    PERFORMER "Владимир Михайлович Зазнобин. Видеоархив"
    INDEX 01 57:56:28
  TRACK 233 AUDIO
    TITLE "00:58:12.02610"
    PERFORMER "Владимир Михайлович Зазнобин. Видеоархив"
    INDEX 01 58:12:02
  TRACK 234 AUDIO
    TITLE "00:58:25.35243"
    PERFORMER "Владимир Михайлович Зазнобин. Видеоархив"
    INDEX 01 58:25:26
  TRACK 235 AUDIO
    TITLE "00:58:38.54222"
    PERFORMER "Владимир Михайлович Зазнобин. Видеоархив"
    INDEX 01 58:38:41
  TRACK 236 AUDIO
    TITLE "00:58:52.47503"
    PERFORMER "Владимир Михайлович Зазнобин. Видеоархив"
    INDEX 01 58:52:36
  TRACK 237 AUDIO
    TITLE "00:59:06.27086"
    PERFORMER "Владимир Михайлович Зазнобин. Видеоархив"
    INDEX 01 59:06:20
  TRACK 238 AUDIO
    TITLE "00:59:22.73236"
    PERFORMER "Владимир Михайлович Зазнобин. Видеоархив"
    INDEX 01 59:22:55
  TRACK 239 AUDIO
    TITLE "00:59:36.93361"
    PERFORMER "Владимир Михайлович Зазнобин. Видеоархив"
    INDEX 01 59:36:70
  TRACK 240 AUDIO
    TITLE "00:59:50.36907"
    PERFORMER "Владимир Михайлович Зазнобин. Видеоархив"
    INDEX 01 59:50:28
  TRACK 241 AUDIO
    TITLE "01:00:07.73844"
    PERFORMER "Владимир Михайлович Зазнобин. Видеоархив"
    INDEX 01 60:07:55
  TRACK 242 AUDIO
    TITLE "01:00:23.67329"
    PERFORMER "Владимир Михайлович Зазнобин. Видеоархив"
    INDEX 01 60:23:50
  TRACK 243 AUDIO
    TITLE "01:00:38.15179"
    PERFORMER "Владимир Михайлович Зазнобин. Видеоархив"
    INDEX 01 60:38:11
  TRACK 244 AUDIO
    TITLE "01:00:54.23526"
    PERFORMER "Владимир Михайлович Зазнобин. Видеоархив"
    INDEX 01 60:54:18
  TRACK 245 AUDIO
    TITLE "01:01:10.10927"
    PERFORMER "Владимир Михайлович Зазнобин. Видеоархив"
    INDEX 01 61:10:08
  TRACK 246 AUDIO
    TITLE "01:01:26.23825"
    PERFORMER "Владимир Михайлович Зазнобин. Видеоархив"
    INDEX 01 61:26:18
  TRACK 247 AUDIO
    TITLE "01:01:41.70220"
    PERFORMER "Владимир Михайлович Зазнобин. Видеоархив"
    INDEX 01 61:41:53
  TRACK 248 AUDIO
    TITLE "01:01:55.54680"
    PERFORMER "Владимир Михайлович Зазнобин. Видеоархив"
    INDEX 01 61:55:41
  TRACK 249 AUDIO
    TITLE "01:02:10.82406"
    PERFORMER "Владимир Михайлович Зазнобин. Видеоархив"
    INDEX 01 62:10:62
  TRACK 250 AUDIO
    TITLE "01:02:26.56757"
    PERFORMER "Владимир Михайлович Зазнобин. Видеоархив"
    INDEX 01 62:26:43
  TRACK 251 AUDIO
    TITLE "01:02:40.21109"
    PERFORMER "Владимир Михайлович Зазнобин. Видеоархив"
    INDEX 01 62:40:16
  TRACK 252 AUDIO
    TITLE "01:02:55.78279"
    PERFORMER "Владимир Михайлович Зазнобин. Видеоархив"
    INDEX 01 62:55:59
  TRACK 253 AUDIO
    TITLE "01:03:09.46531"
    PERFORMER "Владимир Михайлович Зазнобин. Видеоархив"
    INDEX 01 63:09:35
  TRACK 254 AUDIO
    TITLE "01:03:25.19397"
    PERFORMER "Владимир Михайлович Зазнобин. Видеоархив"
    INDEX 01 63:25:15
  TRACK 255 AUDIO
    TITLE "01:03:41.80916"
    PERFORMER "Владимир Михайлович Зазнобин. Видеоархив"
    INDEX 01 63:41:61
  TRACK 256 AUDIO
    TITLE "01:03:55.81721"
    PERFORMER "Владимир Михайлович Зазнобин. Видеоархив"
    INDEX 01 63:55:61
  TRACK 257 AUDIO
    TITLE "01:04:12.38086"
    PERFORMER "Владимир Михайлович Зазнобин. Видеоархив"
    INDEX 01 64:12:29
  TRACK 258 AUDIO
    TITLE "01:04:30.83138"
    PERFORMER "Владимир Михайлович Зазнобин. Видеоархив"
    INDEX 01 64:30:62
  TRACK 259 AUDIO
    TITLE "01:04:46.09238"
    PERFORMER "Владимир Михайлович Зазнобин. Видеоархив"
    INDEX 01 64:46:07
  TRACK 260 AUDIO
    TITLE "01:04:59.58868"
    PERFORMER "Владимир Михайлович Зазнобин. Видеоархив"
    INDEX 01 64:59:44
  TRACK 261 AUDIO
    TITLE "01:05:22.83968"
    PERFORMER "Владимир Михайлович Зазнобин. Видеоархив"
    INDEX 01 65:22:63
  TRACK 262 AUDIO
    TITLE "01:05:38.16848"
    PERFORMER "Владимир Михайлович Зазнобин. Видеоархив"
    INDEX 01 65:38:13
  TRACK 263 AUDIO
    TITLE "01:05:52.67717"
    PERFORMER "Владимир Михайлович Зазнобин. Видеоархив"
    INDEX 01 65:52:51
  TRACK 264 AUDIO
    TITLE "01:06:07.49143"
    PERFORMER "Владимир Михайлович Зазнобин. Видеоархив"
    INDEX 01 66:07:37
  TRACK 265 AUDIO
    TITLE "01:06:21.74098"
    PERFORMER "Владимир Михайлович Зазнобин. Видеоархив"
    INDEX 01 66:21:56
  TRACK 266 AUDIO
    TITLE "01:06:36.07413"
    PERFORMER "Владимир Михайлович Зазнобин. Видеоархив"
    INDEX 01 66:36:06
  TRACK 267 AUDIO
    TITLE "01:06:49.67676"
    PERFORMER "Владимир Михайлович Зазнобин. Видеоархив"
    INDEX 01 66:49:51
  TRACK 268 AUDIO
    TITLE "01:07:03.44195"
    PERFORMER "Владимир Михайлович Зазнобин. Видеоархив"
    INDEX 01 67:03:33
  TRACK 269 AUDIO
    TITLE "01:07:22.20685"
    PERFORMER "Владимир Михайлович Зазнобин. Видеоархив"
    INDEX 01 67:22:16
  TRACK 270 AUDIO
    TITLE "01:07:38.04556"
    PERFORMER "Владимир Михайлович Зазнобин. Видеоархив"
    INDEX 01 67:38:03
  TRACK 271 AUDIO
    TITLE "01:07:51.10671"
    PERFORMER "Владимир Михайлович Зазнобин. Видеоархив"
    INDEX 01 67:51:08
  TRACK 272 AUDIO
    TITLE "01:08:04.22361"
    PERFORMER "Владимир Михайлович Зазнобин. Видеоархив"
    INDEX 01 68:04:17
  TRACK 273 AUDIO
    TITLE "01:08:19.52873"
    PERFORMER "Владимир Михайлович Зазнобин. Видеоархив"
    INDEX 01 68:19:40
  TRACK 274 AUDIO
    TITLE "01:08:33.64406"
    PERFORMER "Владимир Михайлович Зазнобин. Видеоархив"
    INDEX 01 68:33:48
  TRACK 275 AUDIO
    TITLE "01:08:48.71374"
    PERFORMER "Владимир Михайлович Зазнобин. Видеоархив"
    INDEX 01 68:48:54
  TRACK 276 AUDIO
    TITLE "01:09:03.22150"
    PERFORMER "Владимир Михайлович Зазнобин. Видеоархив"
    INDEX 01 69:03:17
  TRACK 277 AUDIO
    TITLE "01:09:16.87522"
    PERFORMER "Владимир Михайлович Зазнобин. Видеоархив"
    INDEX 01 69:16:66
  TRACK 278 AUDIO
    TITLE "01:09:33.58655"
    PERFORMER "Владимир Михайлович Зазнобин. Видеоархив"
    INDEX 01 69:33:44
  TRACK 279 AUDIO
    TITLE "01:09:47.09585"
    PERFORMER "Владимир Михайлович Зазнобин. Видеоархив"
    INDEX 01 69:47:07
  TRACK 280 AUDIO
    TITLE "01:10:00.80345"
    PERFORMER "Владимир Михайлович Зазнобин. Видеоархив"
    INDEX 01 70:00:60
  TRACK 281 AUDIO
    TITLE "01:10:17.26864"
    PERFORMER "Владимир Михайлович Зазнобин. Видеоархив"
    INDEX 01 70:17:20
  TRACK 282 AUDIO
    TITLE "01:10:31.37143"
    PERFORMER "Владимир Михайлович Зазнобин. Видеоархив"
    INDEX 01 70:31:28
  TRACK 283 AUDIO
    TITLE "01:10:44.76649"
    PERFORMER "Владимир Михайлович Зазнобин. Видеоархив"
    INDEX 01 70:44:57
  TRACK 284 AUDIO
    TITLE "01:10:58.43415"
    PERFORMER "Владимир Михайлович Зазнобин. Видеоархив"
    INDEX 01 70:58:33
  TRACK 285 AUDIO
    TITLE "01:11:12.01079"
    PERFORMER "Владимир Михайлович Зазнобин. Видеоархив"
    INDEX 01 71:12:01
  TRACK 286 AUDIO
    TITLE "01:11:25.58093"
    PERFORMER "Владимир Михайлович Зазнобин. Видеоархив"
    INDEX 01 71:25:44
  TRACK 287 AUDIO
    TITLE "01:11:43.03435"
    PERFORMER "Владимир Михайлович Зазнобин. Видеоархив"
    INDEX 01 71:43:03
  TRACK 288 AUDIO
    TITLE "01:11:58.63717"
    PERFORMER "Владимир Михайлович Зазнобин. Видеоархив"
    INDEX 01 71:58:48
  TRACK 289 AUDIO
    TITLE "01:12:13.45467"
    PERFORMER "Владимир Михайлович Зазнобин. Видеоархив"
    INDEX 01 72:13:34
  TRACK 290 AUDIO
    TITLE "01:12:32.69744"
    PERFORMER "Владимир Михайлович Зазнобин. Видеоархив"
    INDEX 01 72:32:52
  TRACK 291 AUDIO
    TITLE "01:12:50.97009"
    PERFORMER "Владимир Михайлович Зазнобин. Видеоархив"
    INDEX 01 72:50:73
  TRACK 292 AUDIO
    TITLE "01:13:06.74379"
    PERFORMER "Владимир Михайлович Зазнобин. Видеоархив"
    INDEX 01 73:06:56
  TRACK 293 AUDIO
    TITLE "01:13:20.31068"
    PERFORMER "Владимир Михайлович Зазнобин. Видеоархив"
    INDEX 01 73:20:23
  TRACK 294 AUDIO
    TITLE "01:13:36.74429"
    PERFORMER "Владимир Михайлович Зазнобин. Видеоархив"
    INDEX 01 73:36:56
  TRACK 295 AUDIO
    TITLE "01:13:52.27000"
    PERFORMER "Владимир Михайлович Зазнобин. Видеоархив"
    INDEX 01 73:52:20
  TRACK 296 AUDIO
    TITLE "01:14:06.87762"
    PERFORMER "Владимир Михайлович Зазнобин. Видеоархив"
    INDEX 01 74:06:66
  TRACK 297 AUDIO
    TITLE "01:14:21.76803"
    PERFORMER "Владимир Михайлович Зазнобин. Видеоархив"
    INDEX 01 74:21:58
  TRACK 298 AUDIO
    TITLE "01:14:36.27995"
    PERFORMER "Владимир Михайлович Зазнобин. Видеоархив"
    INDEX 01 74:36:21
  TRACK 299 AUDIO
    TITLE "01:14:53.34796"
    PERFORMER "Владимир Михайлович Зазнобин. Видеоархив"
    INDEX 01 74:53:26
  TRACK 300 AUDIO
    TITLE "01:15:06.73234"
    PERFORMER "Владимир Михайлович Зазнобин. Видеоархив"
    INDEX 01 75:06:55
  TRACK 301 AUDIO
    TITLE "01:15:24.37848"
    PERFORMER "Владимир Михайлович Зазнобин. Видеоархив"
    INDEX 01 75:24:28
  TRACK 302 AUDIO
    TITLE "01:15:38.47664"
    PERFORMER "Владимир Михайлович Зазнобин. Видеоархив"
    INDEX 01 75:38:36
  TRACK 303 AUDIO
    TITLE "01:15:55.13782"
    PERFORMER "Владимир Михайлович Зазнобин. Видеоархив"
    INDEX 01 75:55:10
  TRACK 304 AUDIO
    TITLE "01:16:10.11787"
    PERFORMER "Владимир Михайлович Зазнобин. Видеоархив"
    INDEX 01 76:10:09
  TRACK 305 AUDIO
    TITLE "01:16:24.68088"
    PERFORMER "Владимир Михайлович Зазнобин. Видеоархив"
    INDEX 01 76:24:51
  TRACK 306 AUDIO
    TITLE "01:16:38.70846"
    PERFORMER "Владимир Михайлович Зазнобин. Видеоархив"
    INDEX 01 76:38:53
  TRACK 307 AUDIO
    TITLE "01:16:52.84887"
    PERFORMER "Владимир Михайлович Зазнобин. Видеоархив"
    INDEX 01 76:52:64
  TRACK 308 AUDIO
    TITLE "01:17:07.57583"
    PERFORMER "Владимир Михайлович Зазнобин. Видеоархив"
    INDEX 01 77:07:43
  TRACK 309 AUDIO
    TITLE "01:17:24.87415"
    PERFORMER "Владимир Михайлович Зазнобин. Видеоархив"
    INDEX 01 77:24:66
  TRACK 310 AUDIO
    TITLE "01:17:40.21179"
    PERFORMER "Владимир Михайлович Зазнобин. Видеоархив"
    INDEX 01 77:40:16
  TRACK 311 AUDIO
    TITLE "01:17:55.24385"
    PERFORMER "Владимир Михайлович Зазнобин. Видеоархив"
    INDEX 01 77:55:18
  TRACK 312 AUDIO
    TITLE "01:18:13.36463"
    PERFORMER "Владимир Михайлович Зазнобин. Видеоархив"
    INDEX 01 78:13:27
  TRACK 313 AUDIO
    TITLE "01:18:29.69932"
    PERFORMER "Владимир Михайлович Зазнобин. Видеоархив"
    INDEX 01 78:29:52
  TRACK 314 AUDIO
    TITLE "01:18:44.89440"
    PERFORMER "Владимир Михайлович Зазнобин. Видеоархив"
    INDEX 01 78:44:67
  TRACK 315 AUDIO
    TITLE "01:18:59.07893"
    PERFORMER "Владимир Михайлович Зазнобин. Видеоархив"
    INDEX 01 78:59:06
  TRACK 316 AUDIO
    TITLE "01:19:12.08946"
    PERFORMER "Владимир Михайлович Зазнобин. Видеоархив"
    INDEX 01 79:12:07
  TRACK 317 AUDIO
    TITLE "01:19:27.01379"
    PERFORMER "Владимир Михайлович Зазнобин. Видеоархив"
    INDEX 01 79:27:01
  TRACK 318 AUDIO
    TITLE "01:19:40.46596"
    PERFORMER "Владимир Михайлович Зазнобин. Видеоархив"
    INDEX 01 79:40:35
  TRACK 319 AUDIO
    TITLE "01:19:54.15544"
    PERFORMER "Владимир Михайлович Зазнобин. Видеоархив"
    INDEX 01 79:54:12
  TRACK 320 AUDIO
    TITLE "01:20:08.48626"
    PERFORMER "Владимир Михайлович Зазнобин. Видеоархив"
    INDEX 01 80:08:36
  TRACK 321 AUDIO
    TITLE "01:20:23.87683"
    PERFORMER "Владимир Михайлович Зазнобин. Видеоархив"
    INDEX 01 80:23:66
  TRACK 322 AUDIO
    TITLE "01:20:38.71617"
    PERFORMER "Владимир Михайлович Зазнобин. Видеоархив"
    INDEX 01 80:38:54
  TRACK 323 AUDIO
    TITLE "01:20:51.94544"
    PERFORMER "Владимир Михайлович Зазнобин. Видеоархив"
    INDEX 01 80:51:71
  TRACK 324 AUDIO
    TITLE "01:21:06.00041"
    PERFORMER "Владимир Михайлович Зазнобин. Видеоархив"
    INDEX 01 81:06:00
  TRACK 325 AUDIO
    TITLE "01:21:19.74932"
    PERFORMER "Владимир Михайлович Зазнобин. Видеоархив"
    INDEX 01 81:19:56
  TRACK 326 AUDIO
    TITLE "01:21:33.82612"
    PERFORMER "Владимир Михайлович Зазнобин. Видеоархив"
    INDEX 01 81:33:62
  TRACK 327 AUDIO
    TITLE "01:21:49.83063"
    PERFORMER "Владимир Михайлович Зазнобин. Видеоархив"
    INDEX 01 81:49:62
  TRACK 328 AUDIO
    TITLE "01:22:06.14073"
    PERFORMER "Владимир Михайлович Зазнобин. Видеоархив"
    INDEX 01 82:06:11
  TRACK 329 AUDIO
    TITLE "01:22:21.23549"
    PERFORMER "Владимир Михайлович Зазнобин. Видеоархив"
    INDEX 01 82:21:18
  TRACK 330 AUDIO
    TITLE "01:22:36.04138"
    PERFORMER "Владимир Михайлович Зазнобин. Видеоархив"
    INDEX 01 82:36:03
  TRACK 331 AUDIO
    TITLE "01:22:49.89850"
    PERFORMER "Владимир Михайлович Зазнобин. Видеоархив"
    INDEX 01 82:49:67
  TRACK 332 AUDIO
    TITLE "01:23:04.24744"
    PERFORMER "Владимир Михайлович Зазнобин. Видеоархив"
    INDEX 01 83:04:19
  TRACK 333 AUDIO
    TITLE "01:23:18.70410"
    PERFORMER "Владимир Михайлович Зазнобин. Видеоархив"
    INDEX 01 83:18:53
  TRACK 334 AUDIO
    TITLE "01:23:34.70630"
    PERFORMER "Владимир Михайлович Зазнобин. Видеоархив"
    INDEX 01 83:34:53
  TRACK 335 AUDIO
    TITLE "01:23:51.30524"
    PERFORMER "Владимир Михайлович Зазнобин. Видеоархив"
    INDEX 01 83:51:23
  TRACK 336 AUDIO
    TITLE "01:24:09.17293"
    PERFORMER "Владимир Михайлович Зазнобин. Видеоархив"
    INDEX 01 84:09:13
  TRACK 337 AUDIO
    TITLE "01:24:23.88642"
    PERFORMER "Владимир Михайлович Зазнобин. Видеоархив"
    INDEX 01 84:23:66
  TRACK 338 AUDIO
    TITLE "01:24:39.76367"
    PERFORMER "Владимир Михайлович Зазнобин. Видеоархив"
    INDEX 01 84:39:57
  TRACK 339 AUDIO
    TITLE "01:24:55.72639"
    PERFORMER "Владимир Михайлович Зазнобин. Видеоархив"
    INDEX 01 84:55:54
  TRACK 340 AUDIO
    TITLE "01:25:09.77857"
    PERFORMER "Владимир Михайлович Зазнобин. Видеоархив"
    INDEX 01 85:09:58
  TRACK 341 AUDIO
    TITLE "01:25:28.57646"
    PERFORMER "Владимир Михайлович Зазнобин. Видеоархив"
    INDEX 01 85:28:43
